<svg width="52" height="52" fill="none" xmlns="http://www.w3.org/2000/svg"><path fill-rule="evenodd" clip-rule="evenodd" d="M7.978 7.973L26 .508l18.022 7.465L51.489 26l-7.467 18.027L26 51.492 7.978 44.027.511 26 7.978 7.973zM26 0l18.385 7.615L52 26l-7.615 18.385L26 52 7.615 44.385 0 26 7.615 7.615 26 0zm-3.492 20.813c-.488-.101-1.09-.152-1.804-.152-1.169 0-2.224.225-3.166.675-.93.45-1.662 1.085-2.195 1.906-.533.81-.8 1.742-.8 2.8 0 1.09.26 2.057.783 2.9.522.843 1.248 1.501 2.178 1.973.942.461 2.008.692 3.2.692.669 0 1.259-.057 1.77-.169a7.66 7.66 0 001.667-.59.5.5 0 00.136-.118c.023-.034.04-.118.051-.253l.17-1.855c0-.034-.04-.051-.119-.051-.056 0-.085.011-.085.034-.306.922-.748 1.607-1.327 2.057-.579.45-1.333.675-2.263.675a4.477 4.477 0 01-2.434-.709 5.191 5.191 0 01-1.77-1.922 5.713 5.713 0 01-.647-2.698c0-1.024.199-1.918.596-2.682a4.228 4.228 0 011.685-1.788c.726-.416 1.566-.624 2.518-.624 1.816 0 2.984.94 3.506 2.817.012.034.046.05.102.05.068-.01.102-.033.102-.067l-.204-2.007a2.285 2.285 0 00-.05-.253c-.012-.034-.058-.073-.137-.118a5.876 5.876 0 00-1.463-.523zm15.206 10.473c0-.067-.017-.101-.051-.101-.431 0-.749-.028-.953-.084-.204-.056-.346-.163-.425-.32-.069-.17-.103-.422-.103-.76v-7.808c0-.337.034-.585.102-.742.08-.158.222-.264.426-.32.204-.068.522-.102.953-.102.034 0 .051-.034.051-.101s-.017-.101-.051-.101l-.834.017c-.476.022-.868.033-1.174.033-.34 0-.76-.01-1.26-.033l-.8-.017c-.033 0-.05.034-.05.101s.017.101.05.101c.443 0 .767.034.97.101.205.068.341.186.41.355.078.157.118.404.118.742v3.474h-6.535v-3.474c0-.338.034-.585.102-.742a.676.676 0 01.426-.355c.215-.067.539-.1.97-.1.022 0 .034-.035.034-.102 0-.067-.012-.101-.034-.101l-.817.017c-.5.022-.913.033-1.242.033-.284 0-.664-.01-1.14-.033l-.869-.017c-.022 0-.034.034-.034.101s.012.101.034.101c.432 0 .75.034.954.101.204.057.34.163.408.32.08.158.12.406.12.743v7.808c0 .338-.04.59-.12.76-.068.157-.21.264-.426.32-.204.056-.521.084-.953.084-.022 0-.034.034-.034.101 0 .068.012.101.034.101.363 0 .647-.005.851-.017l1.175-.016 1.225.017c.204.01.482.016.834.016.022 0 .034-.033.034-.1 0-.068-.012-.102-.034-.102-.443 0-.766-.028-.97-.084-.204-.056-.346-.163-.426-.32-.068-.17-.102-.422-.102-.76v-3.946h6.535v3.946c0 .338-.04.59-.119.76-.068.157-.204.264-.408.32-.205.056-.528.084-.97.084-.034 0-.051.034-.051.101 0 .068.017.101.05.101.341 0 .608-.005.8-.017l1.26-.016 1.174.017c.204.01.482.016.834.016.034 0 .051-.033.051-.1z" fill="#fff"/></svg>